<svg width="24" height="24" viewBox="0 0 24 24" fill="none" xmlns="http://www.w3.org/2000/svg">
<path d="M20 6L20 5C20 4.73478 19.8946 4.48043 19.7071 4.29289C19.5196 4.10536 19.2652 4 19 4L9 4L9 3L6 3L6 4L5 4L5 6L6 6L6 15L5 15L5 13L3 13L3 15L2 15L2 17L3 17L3 21L5 21L5 17L10 17L10 21L12 21L12 17L13 17L13 15L12 15L12 13L10 13L10 15L9 15L9 6L17 6L17 10.62C16.53 10.79 16.19 11.23 16.19 11.76C16.19 12.2 16.43 12.6 16.8 12.82L16.8 14L17.42 14C17.76 14 18.03 14.28 18.03 14.62C18.03 14.96 17.76 15.24 17.42 15.24C17.2 15.24 17 15.12 16.89 14.93C16.8067 14.7906 16.672 14.6895 16.5149 14.6484C16.3579 14.6073 16.1909 14.6294 16.05 14.71C15.75 14.87 15.65 15.25 15.82 15.55C16.15 16.11 16.76 16.47 17.42 16.47C18.43 16.47 19.26 15.64 19.26 14.62C19.26 13.84 18.76 13.14 18.03 12.88L18.03 12.82C18.41 12.6 18.65 12.2 18.65 11.76C18.65 11.3 18.38 10.91 18 10.7L18 6L20 6ZM8 13.66L7 14.66L7 13.24L8 12.24L8 13.66ZM8 10.71L7 11.71L7 10.29L8 9.29L8 10.71ZM7 8.71L7 7.29L8 6.29L8 7.71L7 8.71Z" fill="white"/>
</svg>
