<svg width="24" height="24" viewBox="0 0 24 24" fill="none" xmlns="http://www.w3.org/2000/svg">
<path d="M9 15C6.33 15 0.999999 16.34 0.999999 19L0.999999 20C0.999999 20.55 1.45 21 2 21L16 21C16.55 21 17 20.55 17 20L17 19C17 16.34 11.67 15 9 15ZM4.74 9L13.27 9C13.54 9 13.76 8.78 13.76 8.51L13.76 8.49C13.76 8.36004 13.7084 8.23541 13.6165 8.14352C13.5246 8.05163 13.4 8 13.27 8L13 8C13 6.52 12.19 5.25 11 4.55L11 5.5C11 5.78 10.78 6 10.5 6C10.22 6 10 5.78 10 5.5L10 4.14C9.68 4.06 9.35 4 9 4C8.65 4 8.32 4.06 8 4.14L8 5.5C8 5.78 7.78 6 7.5 6C7.22 6 7 5.78 7 5.5L7 4.55C5.81 5.25 5 6.52 5 8L4.74 8C4.67565 8 4.61193 8.01267 4.55248 8.0373C4.49304 8.06192 4.43902 8.09802 4.39352 8.14352C4.34802 8.18902 4.31192 8.24304 4.2873 8.30249C4.26267 8.36194 4.25 8.42565 4.25 8.49L4.25 8.52C4.25 8.78 4.47 9 4.74 9ZM9 13C10.86 13 12.41 11.72 12.86 10L5.14 10C5.59 11.72 7.14 13 9 13ZM21.98 6.23L22.91 5.4L22.16 4.1L20.97 4.49C20.83 4.38 20.67 4.29 20.5 4.22L20.25 3L18.75 3L18.5 4.22C18.33 4.29 18.17 4.38 18.02 4.49L16.84 4.1L16.09 5.4L17.02 6.23C17 6.4 17 6.58 17.02 6.75L16.09 7.6L16.84 8.9L18.04 8.52C18.17 8.62 18.32 8.7 18.47 8.77L18.75 10L20.25 10L20.52 8.78C20.68 8.71 20.82 8.63 20.96 8.53L22.15 8.91L22.9 7.61L21.97 6.76C22 6.57 21.99 6.4 21.98 6.23ZM19.5 7.75C19.1685 7.75 18.8505 7.6183 18.6161 7.38388C18.3817 7.14946 18.25 6.83152 18.25 6.5C18.25 6.16848 18.3817 5.85054 18.6161 5.61612C18.8505 5.3817 19.1685 5.25 19.5 5.25C19.8315 5.25 20.1495 5.3817 20.3839 5.61612C20.6183 5.85054 20.75 6.16848 20.75 6.5C20.75 6.83152 20.6183 7.14946 20.3839 7.38388C20.1495 7.6183 19.8315 7.75 19.5 7.75ZM19.4 10.79L18.55 11.07C18.45 10.99 18.34 10.93 18.22 10.88L18.04 10L16.97 10L16.79 10.87C16.67 10.92 16.55 10.99 16.45 11.06L15.61 10.78L15.07 11.71L15.73 12.3C15.72 12.43 15.72 12.55 15.73 12.67L15.07 13.28L15.61 14.21L16.47 13.94C16.57 14.01 16.67 14.07 16.78 14.12L16.96 15L18.03 15L18.22 14.13C18.33 14.08 18.44 14.02 18.54 13.95L19.39 14.22L19.93 13.29L19.27 12.68C19.28 12.55 19.28 12.43 19.27 12.31L19.93 11.72L19.4 10.79ZM17.5 13.39C17.01 13.39 16.61 12.99 16.61 12.5C16.61 12.01 17.01 11.61 17.5 11.61C17.99 11.61 18.39 12.01 18.39 12.5C18.39 12.99 17.99 13.39 17.5 13.39Z" fill="white"/>
</svg>
