<svg width="24" height="24" viewBox="0 0 24 24" fill="none" xmlns="http://www.w3.org/2000/svg">
<path d="M2.25004 11.9999C2.25004 11.801 2.32906 11.6103 2.46971 11.4696C2.61036 11.329 2.80113 11.2499 3.00004 11.2499L19.1895 11.2499L12.9698 5.03019C12.8332 4.88874 12.7576 4.69929 12.7593 4.50264C12.761 4.30599 12.8399 4.11788 12.9789 3.97883C13.118 3.83977 13.3061 3.76089 13.5027 3.75918C13.6994 3.75747 13.8888 3.83307 14.0303 3.96969L21.5303 11.4697C21.6709 11.6103 21.7499 11.8011 21.7499 11.9999C21.7499 12.1988 21.6709 12.3895 21.5303 12.5302L14.0303 20.0302C13.8888 20.1668 13.6994 20.2424 13.5027 20.2407C13.3061 20.239 13.118 20.1601 12.9789 20.0211C12.8399 19.882 12.761 19.6939 12.7593 19.4972C12.7576 19.3006 12.8332 19.1111 12.9698 18.9697L19.1895 12.7499L3.00004 12.7499C2.80113 12.7499 2.61036 12.6709 2.46971 12.5303C2.32906 12.3896 2.25004 12.1989 2.25004 11.9999Z" fill="white"/>
</svg>
