<svg width="50" height="50" viewBox="0 0 50 50" fill="none" xmlns="http://www.w3.org/2000/svg">
<path d="M13.6 18.1644C17.6428 14.5715 20.15 13.3572 25 12.4644C29.85 13.3608 32.3571 14.5715 36.4 18.1644L25 23.8644L13.6 18.1644Z" stroke="black" stroke-width="3.57143" stroke-linecap="round" stroke-linejoin="round"/>
<path d="M25 23.8357V37.1607M13.6 18.1643C12.1964 22.0214 12.1821 26.6214 13.2964 30.4964C13.4839 31.1317 13.857 31.6963 14.3679 32.1179C17.8964 35.0607 20.3107 36.1429 24.2464 37.0036C24.7431 37.1108 25.2569 37.1108 25.7536 37.0036C29.6893 36.1429 32.1036 35.0607 35.6286 32.1179C36.1407 31.6968 36.5151 31.1321 36.7036 30.4964C37.8179 26.6214 37.8036 22.0214 36.4 18.1643L25 23.8643L13.6 18.1643Z" stroke="black" stroke-width="3.57143" stroke-linecap="round" stroke-linejoin="round"/>
<path d="M2.67859 25C2.67667 20.0308 4.33298 15.203 7.38509 11.2815C10.4372 7.36002 14.7106 4.56913 19.5282 3.35099C24.3458 2.13285 29.4322 2.55712 33.9814 4.55658C38.5307 6.55604 42.2826 10.0163 44.6429 14.3893C44.9143 10.4536 44.8322 8.20356 44.2857 4.12142M47.3214 25C47.323 29.9588 45.6733 34.777 42.6326 38.6942C39.5919 42.6114 35.3333 45.4045 30.529 46.6328C25.7247 47.8611 20.6482 47.4547 16.1005 45.4776C11.5528 43.5005 7.793 40.0654 5.4143 35.7143C5.14288 39.65 5.22145 41.9 5.77145 45.9821" stroke="black" stroke-width="3.57143" stroke-linecap="round" stroke-linejoin="round"/>
</svg>
