<svg width="38" height="38" viewBox="0 0 38 38" fill="none" xmlns="http://www.w3.org/2000/svg">
<path fill-rule="evenodd" clip-rule="evenodd" d="M26.7229 7.24375L25.25 2.33333C25.25 1.18229 22.1375 0.25 19 0.25C15.8625 0.25 12.75 1.18229 12.75 2.33333L11.2771 7.24375C7.76042 7.99583 5.45834 9.24896 5.45834 10.6667C5.45834 12.9688 11.5208 14.8333 19 14.8333C26.4792 14.8333 32.5417 12.9688 32.5417 10.6667C32.5417 9.24896 30.2396 7.99583 26.7229 7.24375ZM23.3042 3.09792C23.0977 2.99524 22.8831 2.90988 22.6625 2.84271C21.7323 2.54375 20.3906 2.33333 19 2.33333C17.6094 2.33333 16.2677 2.54375 15.3375 2.84375C15.0438 2.9375 14.8344 3.02708 14.6958 3.09792L13.9344 5.63646C14.1385 5.66493 14.3701 5.69479 14.6292 5.72604C17.7664 6.09044 20.9369 6.06034 24.0667 5.63646L23.3042 3.09792ZM24.6708 7.65417C24.3192 7.70668 23.9667 7.75356 23.6135 7.79479C20.5482 8.15166 17.4518 8.15166 14.3865 7.79479C14.0333 7.75374 13.6808 7.70686 13.3292 7.65417L12.9177 9.02292L11.7125 9.28125C10.0625 9.63333 8.84167 10.0771 8.0875 10.5104C8.00235 10.5595 7.91897 10.6117 7.8375 10.6667C8.275 10.9615 8.99688 11.3021 10.0375 11.6219C12.2396 12.299 15.4083 12.75 19 12.75C22.5917 12.75 25.7604 12.299 27.9625 11.6219C29.0031 11.3021 29.725 10.9615 30.1625 10.6656C30.081 10.6113 29.9976 10.5599 29.9125 10.5115C29.1583 10.0771 27.9375 9.63333 26.2875 9.28125L25.0823 9.02292L24.6708 7.65417ZM7.46875 10.3521L7.47917 10.3687C7.47153 10.3583 7.46806 10.3528 7.46875 10.3521ZM7.47709 10.9719L7.48438 10.9604L7.48229 10.9646L7.47709 10.9719ZM14.5 3.21667L14.4875 3.22708L14.5042 3.2125L14.5 3.21667ZM23.4979 3.2125L23.5156 3.22708C23.5142 3.22708 23.5083 3.22222 23.4979 3.2125Z" fill="black"/>
<path d="M10.6687 13.9521C10.711 16.1339 11.6074 18.2121 13.1653 19.7401C14.7232 21.2681 16.8183 22.1241 19.0005 22.1241C21.1827 22.1241 23.2778 21.2681 24.8357 19.7401C26.3937 18.2121 27.29 16.1339 27.3323 13.9521C26.6351 14.1178 25.9318 14.2568 25.224 14.3688C25.0818 15.9213 24.3646 17.3645 23.2131 18.4154C22.0616 19.4663 20.5589 20.0489 19 20.0489C17.4411 20.0489 15.9384 19.4663 14.7869 18.4154C13.6354 17.3645 12.9182 15.9213 12.776 14.3688C12.0686 14.2568 11.3656 14.1178 10.6687 13.9521Z" fill="black"/>
<path fill-rule="evenodd" clip-rule="evenodd" d="M8.40625 37.7499C8.52083 37.4239 8.58333 37.0728 8.58333 36.7083V35.6666H29.4167V32.5416H25.6146L25.4302 32.603C25.0802 32.7155 24.5865 32.8624 23.9708 33.0072C22.3414 33.3887 20.6735 33.582 19 33.5833C16.9812 33.5833 15.2562 33.2958 14.0302 33.0072C13.4752 32.8771 12.9263 32.7217 12.3854 32.5416H9.95521C10.7602 32.0078 11.4305 31.2947 11.9135 30.4583H12.75V24.6395C14.822 24.3625 16.9096 24.2184 19 24.2083C25.2583 24.2083 37.75 25.8572 37.75 31.4999V37.7499H8.40625ZM34.4531 29.6489C35.4083 30.3624 35.6667 30.9728 35.6667 31.4999V35.6666H31.5V31.4999C31.5 31.2237 31.3903 30.9587 31.1949 30.7633C30.9996 30.568 30.7346 30.4583 30.4583 30.4583V27.8322C32.1583 28.3426 33.5302 28.9593 34.4531 29.6489ZM25.25 26.7426C26.2948 26.8864 27.351 27.0697 28.375 27.2947V30.4583H25.25V26.7426ZM19 26.2916C20.3913 26.2978 21.7817 26.3673 23.1667 26.4999V31.052C21.7975 31.3483 20.4008 31.4985 19 31.4999C17.5992 31.4985 16.2025 31.3483 14.8333 31.052V26.4999C16.3615 26.3562 17.8 26.2916 19 26.2916Z" fill="black"/>
<path d="M2.33333 20.0417C2.33333 19.7654 2.22359 19.5004 2.02824 19.3051C1.83289 19.1097 1.56793 19 1.29167 19C1.0154 19 0.750448 19.1097 0.555097 19.3051C0.359747 19.5004 0.25 19.7654 0.25 20.0417V27.3333C0.25 28.4384 0.688987 29.4982 1.47039 30.2796C2.25179 31.061 3.3116 31.5 4.41667 31.5V36.7083C4.41667 36.9846 4.52641 37.2496 4.72176 37.4449C4.91711 37.6403 5.18207 37.75 5.45833 37.75C5.7346 37.75 5.99955 37.6403 6.1949 37.4449C6.39025 37.2496 6.5 36.9846 6.5 36.7083V31.5C7.60507 31.5 8.66488 31.061 9.44628 30.2796C10.2277 29.4982 10.6667 28.4384 10.6667 27.3333V20.0417C10.6667 19.7654 10.5569 19.5004 10.3616 19.3051C10.1662 19.1097 9.90127 19 9.625 19C9.34873 19 9.08378 19.1097 8.88843 19.3051C8.69308 19.5004 8.58333 19.7654 8.58333 20.0417V27.3333C8.58333 27.8859 8.36384 28.4158 7.97314 28.8065C7.58244 29.1972 7.05253 29.4167 6.5 29.4167V20.0417C6.5 19.7654 6.39025 19.5004 6.1949 19.3051C5.99955 19.1097 5.7346 19 5.45833 19C5.18207 19 4.91711 19.1097 4.72176 19.3051C4.52641 19.5004 4.41667 19.7654 4.41667 20.0417V29.4167C3.86413 29.4167 3.33423 29.1972 2.94353 28.8065C2.55283 28.4158 2.33333 27.8859 2.33333 27.3333V20.0417Z" fill="black"/>
</svg>
