<svg width="50" height="50" viewBox="0 0 50 50" fill="none" xmlns="http://www.w3.org/2000/svg">
<path d="M31.25 3.125H50V50H0V0.90332L31.25 32.1533V3.125ZM3.125 46.875H41.5283L3.125 8.47168V46.875ZM42.8467 43.75L45.9717 46.875H46.875V6.25H34.375V9.375H40.625V12.5H34.375V15.625H40.625V18.75H34.375V21.875H43.75V25H34.375V28.125H40.625V31.25H34.375V34.375H40.625V37.5H36.5967L39.7217 40.625H43.75V43.75H42.8467ZM9.375 25.9033L24.0967 40.625H9.375V25.9033ZM12.5 33.4717V37.5H16.5283L12.5 33.4717Z" fill="black"/>
</svg>
