<svg width="40" height="32" viewBox="0 0 40 32" fill="none" xmlns="http://www.w3.org/2000/svg">
<path d="M38.75 0.765625H1.25C0.939199 0.765625 0.641128 0.88909 0.421359 1.10886C0.20159 1.32863 0.078125 1.6267 0.078125 1.9375V30.0625C0.078125 30.3733 0.20159 30.6714 0.421359 30.8911C0.641128 31.1109 0.939199 31.2344 1.25 31.2344H38.75C39.0608 31.2344 39.3589 31.1109 39.5786 30.8911C39.7984 30.6714 39.9219 30.3733 39.9219 30.0625V1.9375C39.9219 1.6267 39.7984 1.32863 39.5786 1.10886C39.3589 0.88909 39.0608 0.765625 38.75 0.765625ZM11.7969 19.5156V12.4844H28.2031V19.5156H11.7969ZM2.42188 19.5156V12.4844H9.45312V19.5156H2.42188ZM30.5469 12.4844H37.5781V19.5156H30.5469V12.4844ZM37.5781 10.1406H21.1719V3.10938H37.5781V10.1406ZM18.8281 3.10938V10.1406H2.42188V3.10938H18.8281ZM2.42188 21.8594H18.8281V28.8906H2.42188V21.8594ZM21.1719 28.8906V21.8594H37.5781V28.8906H21.1719Z" fill="black"/>
</svg>
