<svg width="50" height="50" viewBox="0 0 50 50" fill="none" xmlns="http://www.w3.org/2000/svg">
<path d="M25 4.16675V45.8334M25 4.16675C13.4938 4.16675 4.16669 13.4938 4.16669 25.0001C4.16669 36.5063 13.4938 45.8334 25 45.8334M25 4.16675C36.5063 4.16675 45.8334 13.4938 45.8334 25.0001C45.8334 36.5063 36.5063 45.8334 25 45.8334" stroke="black" stroke-width="3.125" stroke-linecap="round" stroke-linejoin="round"/>
<path d="M25 31.2501C23.3424 31.2501 21.7527 30.5916 20.5806 29.4195C19.4085 28.2474 18.75 26.6577 18.75 25.0001C18.75 23.3425 19.4085 21.7527 20.5806 20.5806C21.7527 19.4085 23.3424 18.7501 25 18.7501M25 38.5417C21.9795 38.5469 19.0448 37.5373 16.6667 35.6751M12.1104 20.8334C12.9916 18.1086 14.7139 15.7332 17.0299 14.0487C19.3459 12.3643 22.1363 11.4574 25 11.4584C28.3834 11.698 33.7188 10.8959 35.525 7.01465M12.9834 31.2501C12.3045 29.9446 11.8429 28.5373 11.6167 27.0834M41.8084 12.6876C40.8917 13.5521 39.7959 14.2688 38.5417 14.5834C34.375 15.6251 30.2084 18.7501 33.3334 22.9167C36.4584 27.0834 39.5834 30.2084 36.4584 34.3751C34.9167 36.4271 33.8334 39.8834 38.0834 41.2105" stroke="black" stroke-width="3.125" stroke-linecap="round" stroke-linejoin="round"/>
</svg>
